<mxfile host="app.diagrams.net" modified="2020-12-02T23:59:21.888Z" agent="5.0 (Macintosh; Intel Mac OS X 11_0_1) AppleWebKit/537.36 (KHTML, like Gecko) Chrome/87.0.4280.67 Safari/537.36" etag="_fbWUtZv_x1wSrNvz2Uq" version="13.10.1" type="github">
  <diagram id="m0MgzQV8Zk1BPx8SlI37" name="Page-1">
    <mxGraphModel dx="900" dy="621" grid="1" gridSize="10" guides="1" tooltips="1" connect="1" arrows="1" fold="1" page="1" pageScale="1" pageWidth="827" pageHeight="1169" math="0" shadow="0">
      <root>
        <mxCell id="0" />
        <mxCell id="1" parent="0" />
        <mxCell id="nnxpNQa-ahXpE_-YceVq-10" value="产品管理" style="rounded=0;whiteSpace=wrap;html=1;" parent="1" vertex="1">
          <mxGeometry x="648" y="393" width="120" height="60" as="geometry" />
        </mxCell>
        <mxCell id="baoNB0xdpaeBck0ij3-0-22" style="edgeStyle=orthogonalEdgeStyle;rounded=0;orthogonalLoop=1;jettySize=auto;html=1;exitX=0.5;exitY=0;exitDx=0;exitDy=0;entryX=0.5;entryY=0;entryDx=0;entryDy=0;" edge="1" parent="1" source="nnxpNQa-ahXpE_-YceVq-11" target="nnxpNQa-ahXpE_-YceVq-30">
          <mxGeometry relative="1" as="geometry" />
        </mxCell>
        <mxCell id="nnxpNQa-ahXpE_-YceVq-11" value="产品上架" style="rounded=0;whiteSpace=wrap;html=1;" parent="1" vertex="1">
          <mxGeometry x="348" y="393" width="120" height="60" as="geometry" />
        </mxCell>
        <mxCell id="baoNB0xdpaeBck0ij3-0-25" style="edgeStyle=orthogonalEdgeStyle;rounded=0;orthogonalLoop=1;jettySize=auto;html=1;exitX=0.5;exitY=0;exitDx=0;exitDy=0;entryX=0.5;entryY=0;entryDx=0;entryDy=0;" edge="1" parent="1" source="nnxpNQa-ahXpE_-YceVq-12" target="nnxpNQa-ahXpE_-YceVq-31">
          <mxGeometry relative="1" as="geometry">
            <Array as="points">
              <mxPoint x="558" y="360" />
              <mxPoint x="258" y="360" />
            </Array>
          </mxGeometry>
        </mxCell>
        <mxCell id="nnxpNQa-ahXpE_-YceVq-12" value="采购需求发布" style="rounded=0;whiteSpace=wrap;html=1;" parent="1" vertex="1">
          <mxGeometry x="498" y="393" width="120" height="60" as="geometry" />
        </mxCell>
        <mxCell id="nnxpNQa-ahXpE_-YceVq-34" style="edgeStyle=orthogonalEdgeStyle;rounded=0;orthogonalLoop=1;jettySize=auto;html=1;exitX=0.5;exitY=1;exitDx=0;exitDy=0;entryX=0.5;entryY=0;entryDx=0;entryDy=0;" parent="1" source="nnxpNQa-ahXpE_-YceVq-13" target="nnxpNQa-ahXpE_-YceVq-15" edge="1">
          <mxGeometry relative="1" as="geometry" />
        </mxCell>
        <mxCell id="nnxpNQa-ahXpE_-YceVq-37" style="edgeStyle=orthogonalEdgeStyle;rounded=0;orthogonalLoop=1;jettySize=auto;html=1;exitX=0.75;exitY=0;exitDx=0;exitDy=0;entryX=0.5;entryY=0;entryDx=0;entryDy=0;" parent="1" source="nnxpNQa-ahXpE_-YceVq-13" target="nnxpNQa-ahXpE_-YceVq-18" edge="1">
          <mxGeometry relative="1" as="geometry">
            <Array as="points">
              <mxPoint x="148" y="490" />
              <mxPoint x="408" y="490" />
            </Array>
          </mxGeometry>
        </mxCell>
        <mxCell id="nnxpNQa-ahXpE_-YceVq-13" value="销售订单" style="rounded=0;whiteSpace=wrap;html=1;" parent="1" vertex="1">
          <mxGeometry x="58" y="510" width="120" height="60" as="geometry" />
        </mxCell>
        <mxCell id="nnxpNQa-ahXpE_-YceVq-35" style="edgeStyle=orthogonalEdgeStyle;rounded=0;orthogonalLoop=1;jettySize=auto;html=1;exitX=0.5;exitY=1;exitDx=0;exitDy=0;" parent="1" source="nnxpNQa-ahXpE_-YceVq-14" edge="1">
          <mxGeometry relative="1" as="geometry">
            <mxPoint x="188" y="650" as="targetPoint" />
          </mxGeometry>
        </mxCell>
        <mxCell id="nnxpNQa-ahXpE_-YceVq-38" style="edgeStyle=orthogonalEdgeStyle;rounded=0;orthogonalLoop=1;jettySize=auto;html=1;exitX=0.75;exitY=0;exitDx=0;exitDy=0;entryX=0.5;entryY=0;entryDx=0;entryDy=0;" parent="1" source="nnxpNQa-ahXpE_-YceVq-14" target="nnxpNQa-ahXpE_-YceVq-20" edge="1">
          <mxGeometry relative="1" as="geometry">
            <Array as="points">
              <mxPoint x="288" y="470" />
              <mxPoint x="558" y="470" />
            </Array>
          </mxGeometry>
        </mxCell>
        <mxCell id="nnxpNQa-ahXpE_-YceVq-14" value="报价单" style="rounded=0;whiteSpace=wrap;html=1;" parent="1" vertex="1">
          <mxGeometry x="198" y="510" width="120" height="60" as="geometry" />
        </mxCell>
        <mxCell id="nnxpNQa-ahXpE_-YceVq-15" value="派车单" style="rounded=0;whiteSpace=wrap;html=1;" parent="1" vertex="1">
          <mxGeometry x="128" y="650" width="120" height="60" as="geometry" />
        </mxCell>
        <mxCell id="nnxpNQa-ahXpE_-YceVq-40" style="edgeStyle=orthogonalEdgeStyle;rounded=0;orthogonalLoop=1;jettySize=auto;html=1;exitX=0.5;exitY=1;exitDx=0;exitDy=0;" parent="1" source="nnxpNQa-ahXpE_-YceVq-18" edge="1">
          <mxGeometry relative="1" as="geometry">
            <mxPoint x="488" y="650" as="targetPoint" />
          </mxGeometry>
        </mxCell>
        <mxCell id="nnxpNQa-ahXpE_-YceVq-18" value="销售订单" style="rounded=0;whiteSpace=wrap;html=1;" parent="1" vertex="1">
          <mxGeometry x="348" y="510" width="120" height="60" as="geometry" />
        </mxCell>
        <mxCell id="nnxpNQa-ahXpE_-YceVq-19" value="" style="endArrow=none;html=1;" parent="1" edge="1">
          <mxGeometry width="50" height="50" relative="1" as="geometry">
            <mxPoint x="330" y="710" as="sourcePoint" />
            <mxPoint x="330" y="360" as="targetPoint" />
          </mxGeometry>
        </mxCell>
        <mxCell id="nnxpNQa-ahXpE_-YceVq-39" style="edgeStyle=orthogonalEdgeStyle;rounded=0;orthogonalLoop=1;jettySize=auto;html=1;exitX=0.5;exitY=1;exitDx=0;exitDy=0;entryX=0.5;entryY=0;entryDx=0;entryDy=0;" parent="1" source="nnxpNQa-ahXpE_-YceVq-20" target="nnxpNQa-ahXpE_-YceVq-21" edge="1">
          <mxGeometry relative="1" as="geometry" />
        </mxCell>
        <mxCell id="nnxpNQa-ahXpE_-YceVq-20" value="采购订单" style="rounded=0;whiteSpace=wrap;html=1;" parent="1" vertex="1">
          <mxGeometry x="498" y="510" width="120" height="60" as="geometry" />
        </mxCell>
        <mxCell id="nnxpNQa-ahXpE_-YceVq-21" value="派车单" style="rounded=0;whiteSpace=wrap;html=1;" parent="1" vertex="1">
          <mxGeometry x="428" y="650" width="120" height="60" as="geometry" />
        </mxCell>
        <mxCell id="nnxpNQa-ahXpE_-YceVq-23" value="&lt;h1&gt;客户&lt;/h1&gt;&lt;div&gt;1. 浏览产品。&lt;/div&gt;&lt;div&gt;2. 点击产品进行下单。&lt;/div&gt;&lt;div&gt;3. 输入订单数量，提交订单。&lt;/div&gt;&lt;div&gt;4. 线下汇款。&lt;/div&gt;&lt;div&gt;5. 订单生效后派车。&lt;/div&gt;&lt;div&gt;6. 查看车辆信息。&lt;/div&gt;" style="text;html=1;strokeColor=none;fillColor=none;spacing=5;spacingTop=-20;whiteSpace=wrap;overflow=hidden;rounded=0;" parent="1" vertex="1">
          <mxGeometry x="260" y="70" width="190" height="170" as="geometry" />
        </mxCell>
        <mxCell id="nnxpNQa-ahXpE_-YceVq-26" value="&lt;h1&gt;供应商&lt;/h1&gt;&lt;div&gt;1. 浏览招采信息。&lt;/div&gt;&lt;div&gt;2. 点击报价按钮提交报价信息。&lt;/div&gt;&lt;div&gt;3. 等待中标信息。&lt;/div&gt;&lt;div&gt;4. 提交派车信息&lt;/div&gt;&lt;div&gt;5. 查看派车信息&lt;/div&gt;" style="text;html=1;strokeColor=none;fillColor=none;spacing=5;spacingTop=-20;whiteSpace=wrap;overflow=hidden;rounded=0;" parent="1" vertex="1">
          <mxGeometry x="58" y="80" width="190" height="180" as="geometry" />
        </mxCell>
        <mxCell id="nnxpNQa-ahXpE_-YceVq-28" value="" style="shape=curlyBracket;whiteSpace=wrap;html=1;rounded=1;rotation=90;" parent="1" vertex="1">
          <mxGeometry x="168" y="220" width="20" height="220" as="geometry" />
        </mxCell>
        <mxCell id="nnxpNQa-ahXpE_-YceVq-29" value="微信" style="text;html=1;strokeColor=none;fillColor=none;align=center;verticalAlign=middle;whiteSpace=wrap;rounded=0;" parent="1" vertex="1">
          <mxGeometry x="158" y="290" width="40" height="20" as="geometry" />
        </mxCell>
        <mxCell id="nnxpNQa-ahXpE_-YceVq-33" style="edgeStyle=orthogonalEdgeStyle;rounded=0;orthogonalLoop=1;jettySize=auto;html=1;exitX=0.5;exitY=1;exitDx=0;exitDy=0;" parent="1" source="nnxpNQa-ahXpE_-YceVq-30" target="nnxpNQa-ahXpE_-YceVq-13" edge="1">
          <mxGeometry relative="1" as="geometry" />
        </mxCell>
        <mxCell id="nnxpNQa-ahXpE_-YceVq-30" value="产品商城" style="rounded=0;whiteSpace=wrap;html=1;" parent="1" vertex="1">
          <mxGeometry x="58" y="393" width="120" height="60" as="geometry" />
        </mxCell>
        <mxCell id="nnxpNQa-ahXpE_-YceVq-32" style="edgeStyle=orthogonalEdgeStyle;rounded=0;orthogonalLoop=1;jettySize=auto;html=1;exitX=0.5;exitY=1;exitDx=0;exitDy=0;" parent="1" source="nnxpNQa-ahXpE_-YceVq-31" target="nnxpNQa-ahXpE_-YceVq-14" edge="1">
          <mxGeometry relative="1" as="geometry" />
        </mxCell>
        <mxCell id="nnxpNQa-ahXpE_-YceVq-31" value="招采信息" style="rounded=0;whiteSpace=wrap;html=1;" parent="1" vertex="1">
          <mxGeometry x="198" y="393" width="120" height="60" as="geometry" />
        </mxCell>
        <mxCell id="nnxpNQa-ahXpE_-YceVq-41" value="" style="shape=curlyBracket;whiteSpace=wrap;html=1;rounded=1;rotation=90;" parent="1" vertex="1">
          <mxGeometry x="538" y="160" width="20" height="340" as="geometry" />
        </mxCell>
        <mxCell id="nnxpNQa-ahXpE_-YceVq-42" value="钉钉" style="text;html=1;strokeColor=none;fillColor=none;align=center;verticalAlign=middle;whiteSpace=wrap;rounded=0;" parent="1" vertex="1">
          <mxGeometry x="528" y="290" width="40" height="20" as="geometry" />
        </mxCell>
        <mxCell id="baoNB0xdpaeBck0ij3-0-6" value="Tenant" style="html=1;" vertex="1" parent="1">
          <mxGeometry x="70" y="820" width="110" height="50" as="geometry" />
        </mxCell>
        <mxCell id="baoNB0xdpaeBck0ij3-0-7" value="PurchaseInfo" style="html=1;" vertex="1" parent="1">
          <mxGeometry x="248" y="820" width="110" height="50" as="geometry" />
        </mxCell>
        <mxCell id="baoNB0xdpaeBck0ij3-0-9" value="1" style="endArrow=open;html=1;endSize=12;startArrow=diamondThin;startSize=14;startFill=0;edgeStyle=orthogonalEdgeStyle;align=left;verticalAlign=bottom;entryX=0;entryY=0.5;entryDx=0;entryDy=0;exitX=1;exitY=0.5;exitDx=0;exitDy=0;" edge="1" parent="1" source="baoNB0xdpaeBck0ij3-0-6" target="baoNB0xdpaeBck0ij3-0-7">
          <mxGeometry x="-1" y="3" relative="1" as="geometry">
            <mxPoint x="192" y="940" as="sourcePoint" />
            <mxPoint x="352" y="940" as="targetPoint" />
          </mxGeometry>
        </mxCell>
        <mxCell id="baoNB0xdpaeBck0ij3-0-10" value="SailInfo" style="html=1;" vertex="1" parent="1">
          <mxGeometry x="248" y="930" width="110" height="50" as="geometry" />
        </mxCell>
        <mxCell id="baoNB0xdpaeBck0ij3-0-11" value="1" style="endArrow=open;html=1;endSize=12;startArrow=diamondThin;startSize=14;startFill=0;edgeStyle=orthogonalEdgeStyle;align=left;verticalAlign=bottom;exitX=0.5;exitY=1;exitDx=0;exitDy=0;entryX=0;entryY=0.5;entryDx=0;entryDy=0;" edge="1" parent="1" source="baoNB0xdpaeBck0ij3-0-6" target="baoNB0xdpaeBck0ij3-0-10">
          <mxGeometry x="-1" y="3" relative="1" as="geometry">
            <mxPoint x="70" y="950" as="sourcePoint" />
            <mxPoint x="270" y="960" as="targetPoint" />
          </mxGeometry>
        </mxCell>
        <mxCell id="baoNB0xdpaeBck0ij3-0-12" value="PurchaseOrder" style="html=1;" vertex="1" parent="1">
          <mxGeometry x="430" y="820" width="110" height="50" as="geometry" />
        </mxCell>
        <mxCell id="baoNB0xdpaeBck0ij3-0-16" value="1" style="endArrow=open;html=1;endSize=12;startArrow=diamondThin;startSize=14;startFill=0;edgeStyle=orthogonalEdgeStyle;align=left;verticalAlign=bottom;entryX=0;entryY=0.5;entryDx=0;entryDy=0;exitX=1;exitY=0.5;exitDx=0;exitDy=0;" edge="1" parent="1" source="baoNB0xdpaeBck0ij3-0-7" target="baoNB0xdpaeBck0ij3-0-12">
          <mxGeometry x="-1" y="3" relative="1" as="geometry">
            <mxPoint x="538" y="845" as="sourcePoint" />
            <mxPoint x="438" y="855" as="targetPoint" />
          </mxGeometry>
        </mxCell>
        <mxCell id="baoNB0xdpaeBck0ij3-0-17" value="SailOrder" style="html=1;" vertex="1" parent="1">
          <mxGeometry x="430" y="930" width="110" height="50" as="geometry" />
        </mxCell>
        <mxCell id="baoNB0xdpaeBck0ij3-0-18" value="1" style="endArrow=open;html=1;endSize=12;startArrow=diamondThin;startSize=14;startFill=0;edgeStyle=orthogonalEdgeStyle;align=left;verticalAlign=bottom;exitX=1;exitY=0.5;exitDx=0;exitDy=0;entryX=0;entryY=0.5;entryDx=0;entryDy=0;" edge="1" parent="1" source="baoNB0xdpaeBck0ij3-0-10" target="baoNB0xdpaeBck0ij3-0-17">
          <mxGeometry x="-1" y="3" relative="1" as="geometry">
            <mxPoint x="368" y="855" as="sourcePoint" />
            <mxPoint x="438" y="855" as="targetPoint" />
          </mxGeometry>
        </mxCell>
        <mxCell id="baoNB0xdpaeBck0ij3-0-19" value="weigh" style="html=1;" vertex="1" parent="1">
          <mxGeometry x="640" y="880" width="110" height="50" as="geometry" />
        </mxCell>
        <mxCell id="baoNB0xdpaeBck0ij3-0-20" value="1" style="endArrow=open;html=1;endSize=12;startArrow=diamondThin;startSize=14;startFill=0;edgeStyle=orthogonalEdgeStyle;align=left;verticalAlign=bottom;entryX=0;entryY=0.5;entryDx=0;entryDy=0;exitX=1;exitY=0.5;exitDx=0;exitDy=0;" edge="1" parent="1" source="baoNB0xdpaeBck0ij3-0-12" target="baoNB0xdpaeBck0ij3-0-19">
          <mxGeometry x="-1" y="3" relative="1" as="geometry">
            <mxPoint x="368" y="855" as="sourcePoint" />
            <mxPoint x="440" y="855" as="targetPoint" />
          </mxGeometry>
        </mxCell>
        <mxCell id="baoNB0xdpaeBck0ij3-0-21" value="1" style="endArrow=open;html=1;endSize=12;startArrow=diamondThin;startSize=14;startFill=0;edgeStyle=orthogonalEdgeStyle;align=left;verticalAlign=bottom;entryX=0;entryY=0.5;entryDx=0;entryDy=0;exitX=1;exitY=0.5;exitDx=0;exitDy=0;" edge="1" parent="1" source="baoNB0xdpaeBck0ij3-0-17" target="baoNB0xdpaeBck0ij3-0-19">
          <mxGeometry x="-1" y="3" relative="1" as="geometry">
            <mxPoint x="550" y="855" as="sourcePoint" />
            <mxPoint x="650" y="905" as="targetPoint" />
          </mxGeometry>
        </mxCell>
      </root>
    </mxGraphModel>
  </diagram>
</mxfile>
